<?xml version="1.0" encoding="UTF-8"?><!DOCTYPE svg PUBLIC "-//W3C//DTD SVG 1.1//EN" "http://www.w3.org/Graphics/SVG/1.1/DTD/svg11.dtd"><svg xmlns="http://www.w3.org/2000/svg" xmlns:xlink="http://www.w3.org/1999/xlink"><defs>
        <linearGradient id="b" x1="29.534" y1="-2.813" x2="43.034" y2="20.5" gradientUnits="userSpaceOnUse">
            <stop stop-color="#00D5C7"/>
            <stop offset="1" stop-color="#FFEE57"/>
        </linearGradient>
        <clipPath id="a">
            <path fill="#fff" transform="translate(29.534)" d="M0 0h18v18H0z"/>
        </clipPath>
    </defs><symbol id="arrow-down">
  <path fill-rule="evenodd" clip-rule="evenodd" d="M17.53 8.97a.75.75 0 0 1 0 1.06l-5 5a.75.75 0 0 1-1.06 0l-5-5a.75.75 0 1 1 1.06-1.06L12 13.44l4.47-4.47a.75.75 0 0 1 1.06 0Z" fill="#5780EA"/>
</symbol><symbol id="arrowPrevPage">
  <path fill-rule="evenodd" clip-rule="evenodd" d="M14.53 18.53a.75.75 0 0 1-1.06 0l-6-6a.75.75 0 0 1 0-1.06l6-6a.75.75 0 1 1 1.06 1.06L9.06 12l5.47 5.47a.75.75 0 0 1 0 1.06Z" fill="#5780EA"/>
</symbol><symbol id="buttonArrow">
    <path fill-rule="evenodd" clip-rule="evenodd" d="M11.47 5.47a.75.75 0 0 1 1.06 0l6 6a.75.75 0 0 1 0 1.06l-6 6a.75.75 0 1 1-1.06-1.06l4.72-4.72H6a.75.75 0 0 1 0-1.5h10.19l-4.72-4.72a.75.75 0 0 1 0-1.06Z" fill="#000B26" fill-opacity=".72"/>
</symbol><symbol id="checkbox">
	<path fill-rule="evenodd" clip-rule="evenodd" d="M13.757 3.198a.75.75 0 0 1 .045 1.06l-6.89 7.5a.75.75 0 0 1-1.093.012l-3.61-3.75A.75.75 0 1 1 3.29 6.98l3.057 3.175 6.35-6.912a.75.75 0 0 1 1.06-.045Z" fill="#fff"/>
</symbol><symbol id="close">
    <path fill-rule="evenodd" clip-rule="evenodd" d="M18.707 2.707a1 1 0 0 0-1.414-1.414L10 8.586 2.707 1.293a1 1 0 0 0-1.414 1.414L8.586 10l-7.293 7.293a1 1 0 1 0 1.414 1.414L10 11.414l7.293 7.293a1 1 0 0 0 1.414-1.414L11.414 10l7.293-7.293Z" fill="#000B26" fill-opacity=".72"/>
</symbol><symbol id="filter" viewBox="0 0 24 24">
<path fill-rule="evenodd" clip-rule="evenodd" d="M2.32627 2.67049C2.45212 2.41316 2.71356 2.25 3.00001 2.25H21C21.2865 2.25 21.5479 2.41316 21.6737 2.67049C21.7996 2.92781 21.7679 3.23435 21.592 3.46046L14.75 12.2573V21C14.75 21.2599 14.6154 21.5013 14.3943 21.638C14.1732 21.7746 13.8971 21.7871 13.6646 21.6708L9.6646 19.6708C9.41051 19.5438 9.25001 19.2841 9.25001 19V12.2573L2.40799 3.46046C2.23213 3.23435 2.20042 2.92781 2.32627 2.67049ZM4.53349 3.75L10.592 11.5395C10.6944 11.6712 10.75 11.8332 10.75 12V18.5365L13.25 19.7865V12C13.25 11.8332 13.3056 11.6712 13.408 11.5395L19.4665 3.75H4.53349Z" fill="#5780EA"/>
</symbol><symbol id="goIn">
    <path fill-rule="evenodd" clip-rule="evenodd" d="M6.75 2.25A3.75 3.75 0 0 0 3 6v12a3.75 3.75 0 0 0 3.75 3.75h6A3.75 3.75 0 0 0 16.5 18v-1a.75.75 0 0 0-1.5 0v1a2.25 2.25 0 0 1-2.25 2.25h-6A2.25 2.25 0 0 1 4.5 18V6a2.25 2.25 0 0 1 2.25-2.25h6A2.25 2.25 0 0 1 15 6v1a.75.75 0 0 0 1.5 0V6a3.75 3.75 0 0 0-3.75-3.75h-6Zm5.03 7.28a.75.75 0 0 0-1.06-1.06l-3 3a.75.75 0 0 0 0 1.06l3 3a.75.75 0 1 0 1.06-1.06l-1.72-1.72h10.19a.75.75 0 0 0 0-1.5H10.06l1.72-1.72Z" fill="#000B26" fill-opacity=".72"/>
</symbol><symbol id="letter">
    <path fill-rule="evenodd" clip-rule="evenodd" d="M5 5.5h14a1.5 1.5 0 0 1 1.411.991l-7.163 4.776a2.25 2.25 0 0 1-2.496 0L3.589 6.49A1.5 1.5 0 0 1 5 5.5ZM3.5 8.235V17A1.5 1.5 0 0 0 5 18.5h14a1.5 1.5 0 0 0 1.5-1.5V8.235l-6.42 4.28c-1.26.84-2.9.84-4.16 0L3.5 8.235ZM2 7a3 3 0 0 1 3-3h14a3 3 0 0 1 3 3v10a3 3 0 0 1-3 3H5a3 3 0 0 1-3-3V7Z" fill="#000B26" fill-opacity=".32"/>
</symbol><symbol id="location">
    <path fill-rule="evenodd" clip-rule="evenodd" d="M12 12a2 2 0 1 0 0-4 2 2 0 0 0 0 4Zm0 1.5a3.5 3.5 0 1 0 0-7 3.5 3.5 0 0 0 0 7Z" fill="#000B26" fill-opacity=".72"/>
    <path fill-rule="evenodd" clip-rule="evenodd" d="M16.119 16.129c1.363-1.818 2.381-3.97 2.381-6.324C18.5 6.357 15.625 3.5 12 3.5S5.5 6.357 5.5 9.805c0 2.354 1.018 4.506 2.381 6.324 1.36 1.813 2.986 3.19 4.002 3.956a.19.19 0 0 0 .117.043.19.19 0 0 0 .117-.043c1.016-.767 2.641-2.143 4.002-3.956Zm-3.099 5.153C15.176 19.655 20 15.392 20 9.805 20 5.495 16.418 2 12 2S4 5.494 4 9.805c0 5.587 4.824 9.85 6.98 11.477.61.46 1.43.46 2.04 0Z" fill="#000B26" fill-opacity=".72"/>
</symbol><symbol id="logo">
    <path d="M10.967 16.722v-2.899H3.3v-3.501h7.506V7.423H3.299v-3.27h7.668V1.256H0v15.467h10.967ZM21.052 17c3.415 0 5.367-1.878 6.482-3.803L24.7 11.83c-.651 1.275-2.045 2.25-3.648 2.25-2.812 0-4.857-2.157-4.857-5.079 0-2.922 2.045-5.078 4.857-5.078 1.603 0 2.997.997 3.648 2.249l2.834-1.391C26.442 2.855 24.467 1 21.052 1c-4.648 0-8.25 3.246-8.25 8s3.602 8 8.25 8Z" fill="#000B26" fill-opacity=".72"/>
    <g clip-path="url(#a)">
        <path d="M32.542 13.1s1.262 3.784 5.992 4.9v-1.406c4.824 0 8.733-3.038 8.733-7.86a8.733 8.733 0 1 0-17.374 1.27c.576-3.699 3.781-6.584 8.423-7.503l.118-1.528c3.79.683 5.922 4.697 5.922 4.697S42.512 9 38.591 10.212l.007-1.933c-4.546 1.456-6.056 4.821-6.056 4.821Z" fill="url(#b)"/>
    </g>
    <path d="m62.081 16.71-3.485-5.89c1.673-.394 3.392-1.855 3.392-4.591 0-2.875-1.975-4.986-5.204-4.986h-7.25V16.71h3.3v-5.496h2.416l3.044 5.496h3.787Zm-5.785-8.394h-3.462V4.142h3.462c1.324 0 2.323.788 2.323 2.087 0 1.299-.999 2.087-2.323 2.087Zm15.163 8.672c4.716 0 6.994-2.62 6.994-6.47V1.244h-3.37v9.183c0 2.157-1.231 3.64-3.624 3.64-2.394 0-3.648-1.483-3.648-3.64V1.243h-3.346v9.299c0 3.803 2.277 6.446 6.994 6.446Zm15.554 0c4.182 0 6.203-2.133 6.203-4.962 0-5.774-8.899-4.127-8.899-6.585 0-.928.79-1.554 2.208-1.554 1.58 0 3.252.533 4.507 1.693l1.836-2.412c-1.534-1.414-3.578-2.156-6.041-2.156-3.648 0-5.879 2.133-5.879 4.707 0 5.82 8.923 3.942 8.923 6.678 0 .881-.883 1.716-2.696 1.716a6.802 6.802 0 0 1-4.926-2.087L80.46 14.53c1.44 1.461 3.578 2.458 6.553 2.458Z" fill="#000B26" fill-opacity=".72"/>
    
</symbol><symbol id="menu">
    <path fill-rule="evenodd" clip-rule="evenodd" d="M.25 1A.75.75 0 0 1 1 .25h18a.75.75 0 0 1 0 1.5H1A.75.75 0 0 1 .25 1Zm0 12a.75.75 0 0 1 .75-.75h18a.75.75 0 0 1 0 1.5H1A.75.75 0 0 1 .25 13ZM1 6.25a.75.75 0 0 0 0 1.5h18a.75.75 0 0 0 0-1.5H1Z" fill="#000B26" fill-opacity=".72"/>
</symbol><symbol id="next-arrow">
    <path fill-rule="evenodd" clip-rule="evenodd" d="M8.47 5.47a.75.75 0 0 1 1.06 0l6 6a.75.75 0 0 1 0 1.06l-6 6a.75.75 0 0 1-1.06-1.06L13.94 12 8.47 6.53a.75.75 0 0 1 0-1.06Z" fill="#000B26" fill-opacity=".72"/>
</symbol><symbol id="phone">
    <path fill-rule="evenodd" clip-rule="evenodd" d="M6.532 3.613c-.318.224-.793.621-1.372 1.301-.67.788-1.075 1.725-1.056 2.667.045 2.18 1.055 5.23 4.07 8.246 3.087 3.087 6.149 4.081 8.318 4.088.895.003 1.783-.386 2.537-1.021.706-.595 1.121-1.09 1.355-1.423a.166.166 0 0 0-.05-.058l-3.316-2.654a.25.25 0 0 0-.333.019l-.633.633c-.862.862-2.249 1.094-3.32.36A17.11 17.11 0 0 1 8.23 11.27c-.738-1.077-.506-2.472.366-3.336l.625-.62a.25.25 0 0 0 .02-.333L6.58 3.656a.184.184 0 0 0-.048-.043Zm-2.514.329c.668-.785 1.246-1.274 1.678-1.574.742-.516 1.608-.209 2.055.35l2.66 3.326a1.75 1.75 0 0 1-.134 2.336L9.652 9c-.413.409-.47 1.006-.185 1.421a15.61 15.61 0 0 0 4.111 4.112c.412.282 1.004.226 1.413-.183l.633-.633a1.75 1.75 0 0 1 2.33-.129l3.318 2.654c.569.455.87 1.331.35 2.076-.31.444-.817 1.041-1.626 1.723-.953.802-2.172 1.379-3.509 1.374-2.62-.008-6.047-1.201-9.373-4.527-3.259-3.259-4.456-6.668-4.51-9.277-.028-1.395.569-2.676 1.414-3.669Z" fill="#000B26" fill-opacity=".32"/>
</symbol><symbol id="prev-arrow">
    <path fill-rule="evenodd" clip-rule="evenodd" d="M14.53 18.53a.75.75 0 0 1-1.06 0l-6-6a.75.75 0 0 1 0-1.06l6-6a.75.75 0 1 1 1.06 1.06L9.06 12l5.47 5.47a.75.75 0 0 1 0 1.06Z" fill="#000B26" fill-opacity=".72"/>
</symbol><symbol id="search" viewBox="0 0 24 16">
<path fill-rule="evenodd" clip-rule="evenodd" d="M15.625 7.125C15.625 9.61028 13.6103 11.625 11.125 11.625C8.63972 11.625 6.625 9.61028 6.625 7.125C6.625 4.63972 8.63972 2.625 11.125 2.625C13.6103 2.625 15.625 4.63972 15.625 7.125ZM14.8042 11.8649C13.7882 12.6547 12.5115 13.125 11.125 13.125C7.81129 13.125 5.125 10.4387 5.125 7.125C5.125 3.81129 7.81129 1.125 11.125 1.125C14.4387 1.125 17.125 3.81129 17.125 7.125C17.125 8.51153 16.6547 9.78822 15.8649 10.8042L18.6553 13.5947C18.9482 13.8876 18.9482 14.3624 18.6553 14.6553C18.3624 14.9482 17.8876 14.9482 17.5947 14.6553L14.8042 11.8649Z" fill="#000B26" fill-opacity="0.48"/>
</symbol></svg>